{
  "accessors": [
    {
      "bufferView": 2,
      "componentType": 5126,
      "count": 22092,
      "max": [
        0.046622999012470245,
        0.6764559745788574,
        0.6945449709892273
      ],
      "min": [
        -0.049977999180555344,
        -0.6532279849052429,
        -0.761322021484375
      ],
      "type": "VEC3"
    },
    {
      "bufferView": 2,
      "byteOffset": 265104,
      "componentType": 5126,
      "count": 22092,
      "max": [
        0.9999973773956299,
        0.9999911785125732,
        0.9999749660491943
      ],
      "min": [
        -0.9999988079071045,
        -0.9999746084213257,
        -0.9998117089271545
      ],
      "type": "VEC3"
    },
    {
      "bufferView": 1,
      "componentType": 5126,
      "count": 22092,
      "max": [
        0.9728609919548035,
        0.9855830073356628
      ],
      "min": [
        0.040063999593257904,
        0.010528000071644783
      ],
      "type": "VEC2"
    },
    {
      "bufferView": 0,
      "componentType": 5125,
      "count": 132336,
      "type": "SCALAR"
    }
  ],
  "asset": {
    "extras": {
      "author": "rigasreal (https://sketchfab.com/rigasreal)",
      "license": "SKETCHFAB Standard (https://sketchfab.com/licenses)",
      "source": "https://sketchfab.com/3d-models/3d-alphabet-bubble-inflated-rounded-liquid-font-d25b2e36e7644a2dae8caf37c64b0098",
      "title": "3D Alphabet bubble inflated rounded liquid font"
    },
    "generator": "Sketchfab-16.21.0",
    "version": "2.0"
  },
  "bufferViews": [
    {
      "buffer": 0,
      "byteLength": 529344,
      "name": "floatBufferViews",
      "target": 34963
    },
    {
      "buffer": 0,
      "byteLength": 176736,
      "byteOffset": 529344,
      "byteStride": 8,
      "name": "floatBufferViews",
      "target": 34962
    },
    {
      "buffer": 0,
      "byteLength": 530208,
      "byteOffset": 706080,
      "byteStride": 12,
      "name": "floatBufferViews",
      "target": 34962
    }
  ],
  "buffers": [
    {
      "byteLength": 1236288,
      "uri": "scene.bin"
    }
  ],
  "materials": [
    {
      "doubleSided": true,
      "name": "Material.005",
      "pbrMetallicRoughness": {
        "baseColorFactor": [
          0.5111963502701914,
          0.828292110066717,
          0.08890465556864836,
          1.0
        ],
        "metallicFactor": 0.0,
        "roughnessFactor": 0.236191196011264
      }
    }
  ],
  "meshes": [
    {
      "name": "Object_0",
      "primitives": [
        {
          "attributes": {
            "NORMAL": 1,
            "POSITION": 0,
            "TEXCOORD_0": 2
          },
          "indices": 3,
          "material": 0,
          "mode": 4
        }
      ]
    }
  ],
  "nodes": [
    {
      "children": [
        1
      ],
      "matrix": [
        1.0,
        0.0,
        0.0,
        0.0,
        0.0,
        2.220446049250313e-16,
        -1.0,
        0.0,
        0.0,
        1.0,
        2.220446049250313e-16,
        0.0,
        0.0,
        0.0,
        0.0,
        1.0
      ],
      "name": "Sketchfab_model"
    },
    {
      "children": [
        2
      ],
      "name": "abecedazjedladeda.obj.cleaner.materialmerger.gles"
    },
    {
      "mesh": 0,
      "name": "Object_2"
    }
  ],
  "scene": 0,
  "scenes": [
    {
      "name": "Sketchfab_Scene",
      "nodes": [
        0
      ]
    }
  ]
}
